<?xml version="1.0" standalone="no"?>
<!DOCTYPE svg PUBLIC "-//W3C//DTD SVG 20010904//EN"
 "http://www.w3.org/TR/2001/REC-SVG-20010904/DTD/svg10.dtd">
<svg version="1.0" xmlns="http://www.w3.org/2000/svg"
 width="300.000000pt" height="271.000000pt" viewBox="0 0 300.000000 271.000000"
 preserveAspectRatio="xMidYMid meet">
<metadata>
Created by potrace 1.10, written by Peter Selinger 2001-2011
</metadata>
<g transform="translate(0.000000,271.000000) scale(0.100000,-0.100000)"
fill="#000000" stroke="none">
<path d="M762 2066 c-276 -278 -502 -510 -502 -516 0 -8 88 -10 310 -8 l310 3
-150 -150 c-83 -83 -150 -156 -150 -163 0 -11 60 -13 310 -10 l310 3 -157
-157 c-87 -87 -153 -158 -148 -158 6 0 150 0 320 0 l310 0 -160 -160 -160
-160 515 2 515 3 1 500 c1 275 -1 504 -4 509 -2 4 -74 -61 -158 -145 l-154
-154 0 313 c0 171 -3 312 -7 312 -4 0 -76 -69 -160 -152 l-153 -153 0 313 c0
171 -3 312 -7 312 -4 0 -76 -69 -160 -152 l-153 -153 0 313 c0 171 -4 312 -8
312 -5 0 -234 -227 -510 -504z m316 -323 l-183 -183 -305 0 -305 0 485 485
485 485 3 -302 2 -303 -182 -182z m320 -320 l-183 -183 -305 0 -305 0 150 150
149 150 186 2 185 3 3 185 2 185 148 148 147 147 3 -302 2 -303 -182 -182z
m320 -320 l-183 -183 -305 0 -305 0 152 151 151 152 183 1 184 1 5 190 5 190
145 145 145 145 3 -305 2 -305 -182 -182z m-458 622 l0 -165 -167 0 -168 0
165 165 c91 91 166 165 167 165 2 0 3 -74 3 -165z m320 -315 l0 -170 -165 0
c-91 0 -165 1 -165 3 0 2 322 333 328 336 1 0 2 -75 2 -169z m638 -554 l-3
-246 -483 -3 c-265 -1 -482 -2 -482 -2 0 0 67 69 148 153 l147 152 188 0 187
0 0 187 0 188 148 148 147 147 3 -239 c1 -132 1 -350 0 -485z m-318 234 l0
-170 -165 0 c-91 0 -165 1 -165 3 0 2 323 334 328 336 1 0 2 -75 2 -169z"/>
</g>
</svg>
