<?xml version="1.0" standalone="no"?>
<!DOCTYPE svg PUBLIC "-//W3C//DTD SVG 20010904//EN"
 "http://www.w3.org/TR/2001/REC-SVG-20010904/DTD/svg10.dtd">
<svg version="1.0" xmlns="http://www.w3.org/2000/svg"
 width="300.000000pt" height="271.000000pt" viewBox="0 0 300.000000 271.000000"
 preserveAspectRatio="xMidYMid meet">
<metadata>
Created by potrace 1.10, written by Peter Selinger 2001-2011
</metadata>
<g transform="translate(0.000000,271.000000) scale(0.100000,-0.100000)"
fill="#000000" stroke="none">
<path d="M1535 2594 c-179 -38 -343 -131 -491 -279 -55 -55 -129 -120 -164
-145 -34 -25 -90 -75 -124 -111 -34 -37 -98 -94 -142 -128 -386 -289 -503
-804 -279 -1228 152 -288 424 -474 749 -513 294 -35 605 81 809 301 41 44 97
94 124 111 26 16 89 72 139 122 50 51 113 108 140 126 27 19 77 61 112 94 284
272 376 683 233 1051 -119 308 -383 531 -710 601 -86 18 -305 17 -396 -2z
m440 -34 c91 -25 221 -83 292 -131 69 -47 188 -164 238 -234 59 -84 110 -189
141 -292 32 -109 44 -306 24 -417 -39 -218 -153 -419 -316 -558 -37 -32 -69
-56 -71 -54 -3 2 8 23 23 47 36 58 77 158 100 249 28 111 26 364 -4 475 -73
266 -261 498 -502 620 -250 127 -561 138 -809 29 -30 -14 -56 -23 -57 -21 -2
2 24 28 59 59 155 137 297 209 480 244 102 19 299 12 402 -16z m-270 -247
c172 -49 312 -132 431 -255 182 -188 267 -397 268 -663 0 -157 -23 -262 -89
-400 -61 -130 -92 -167 -167 -203 -35 -16 -64 -29 -66 -27 -1 1 11 42 27 91
39 118 55 236 46 353 -34 485 -402 868 -872 910 -103 9 -257 -2 -328 -23 -27
-9 -50 -14 -52 -13 -1 2 18 33 42 70 48 71 80 93 200 136 116 42 181 51 340
47 112 -2 168 -8 220 -23z m-807 -192 c-25 -40 -45 -57 -86 -76 -30 -14 -52
-20 -50 -15 4 13 161 150 166 146 2 -2 -12 -27 -30 -55z m443 -36 c211 -37
380 -126 522 -274 118 -124 185 -237 234 -398 24 -79 26 -104 27 -253 1 -174
-7 -223 -57 -353 -21 -56 -24 -58 -72 -72 -247 -71 -520 -32 -752 107 -73 43
-213 175 -268 252 -109 154 -164 316 -172 507 -6 145 4 222 49 356 30 93 31
93 72 104 144 40 284 48 417 24z m-521 -143 c-181 -539 161 -1126 725 -1247
135 -29 369 -19 469 21 18 7 18 5 -4 -32 -52 -87 -72 -106 -148 -141 -244
-113 -542 -115 -785 -5 -190 86 -360 249 -452 432 -152 303 -133 659 51 947
27 43 46 59 101 87 37 19 69 33 71 31 1 -1 -11 -43 -28 -93z m-215 -103 c-69
-134 -96 -239 -102 -400 -6 -153 8 -246 57 -380 59 -161 184 -330 322 -434 81
-61 244 -140 343 -165 183 -48 413 -34 585 35 46 19 86 32 88 31 7 -8 -119
-112 -193 -160 -152 -99 -291 -144 -470 -153 -134 -7 -228 7 -357 51 -312 106
-551 386 -615 721 -23 119 -13 313 21 428 31 103 81 208 141 293 40 55 213
229 221 222 2 -2 -17 -42 -41 -89z m1515 -1120 c-36 -33 -78 -70 -93 -81 l-29
-21 30 54 c25 43 42 59 84 81 29 15 58 27 63 27 6 0 -19 -27 -55 -60z"/>
</g>
</svg>
