<?xml version="1.0" standalone="no"?>
<!DOCTYPE svg PUBLIC "-//W3C//DTD SVG 20010904//EN"
 "http://www.w3.org/TR/2001/REC-SVG-20010904/DTD/svg10.dtd">
<svg version="1.0" xmlns="http://www.w3.org/2000/svg"
 width="284.000000pt" height="110.000000pt" viewBox="0 0 284.000000 110.000000"
 preserveAspectRatio="xMidYMid meet">
<metadata>
Created by potrace 1.10, written by Peter Selinger 2001-2011
</metadata>
<g transform="translate(0.000000,110.000000) scale(0.100000,-0.100000)"
fill="#000000" stroke="none">
<path d="M190 1005 c0 -34 -1 -35 -40 -35 l-40 0 0 -45 c0 -45 0 -45 -35 -45
l-35 0 0 -405 0 -405 405 0 405 0 0 40 0 40 41 0 41 0 -4 38 c-3 36 -2 37 35
40 l37 3 0 405 0 404 -405 0 -405 0 0 -35z m800 -375 l0 -390 -32 0 -33 0 0
362 0 363 -362 3 -363 2 0 25 0 25 395 0 395 0 0 -390z m-800 285 c0 -32 -2
-35 -30 -35 -28 0 -30 3 -30 35 0 32 2 35 30 35 28 0 30 -3 30 -35z m720 -320
l0 -355 -30 0 -30 0 0 320 0 320 -325 0 -325 0 0 35 0 35 355 0 355 0 0 -355z
m-800 -85 l0 -360 365 0 365 0 0 -35 0 -35 -395 0 -395 0 0 395 0 395 30 0 30
0 0 -360z m80 40 l0 -320 325 0 325 0 0 -30 0 -30 -355 0 -355 0 0 350 0 350
30 0 30 0 0 -320z m650 5 l0 -315 -320 0 -320 0 0 315 0 315 320 0 320 0 0
-315z m70 -355 c0 -27 -3 -30 -30 -30 -27 0 -30 3 -30 30 0 27 3 30 30 30 27
0 30 -3 30 -30z"/>
<path d="M300 420 l0 -90 90 0 90 0 0 90 0 90 -90 0 -90 0 0 -90z m135 0 l0
-45 -45 0 c-44 0 -45 1 -48 33 -5 54 2 64 50 60 l43 -3 0 -45z"/>
<path d="M1330 553 l0 -153 26 0 c26 0 26 1 22 65 l-4 65 83 0 c76 0 83 2 83
20 0 18 -7 20 -83 20 l-83 0 2 48 1 47 96 -1 c93 -1 97 -1 97 20 0 21 -3 22
-120 21 l-120 0 0 -152z"/>
<path d="M1602 688 c8 -13 36 -59 61 -104 39 -68 47 -89 47 -132 0 -45 3 -52
20 -52 17 0 20 7 20 51 0 44 8 64 56 147 31 54 59 101 61 105 3 5 -7 7 -22 5
-23 -2 -35 -16 -70 -81 l-43 -79 -44 79 c-37 66 -48 79 -73 81 -28 4 -28 3
-13 -20z"/>
<path d="M1920 708 c-1 -2 -2 -72 -3 -156 l-2 -152 113 0 c105 0 112 1 112 20
0 19 -7 20 -90 20 l-90 0 0 135 c0 128 -1 135 -20 135 -11 0 -20 -1 -20 -2z"/>
<path d="M2200 555 l0 -155 110 0 c103 0 110 1 110 20 0 19 -7 20 -90 20 l-90
0 0 135 c0 128 -1 135 -20 135 -19 0 -20 -7 -20 -155z"/>
<path d="M2565 676 c-9 -20 -38 -90 -65 -157 l-49 -120 26 3 c20 2 29 11 38
38 l12 35 73 0 73 0 12 -35 c9 -26 18 -36 38 -38 l26 -3 -63 153 c-52 126 -67
154 -85 156 -17 3 -25 -5 -36 -32z m59 -78 c9 -29 20 -59 23 -65 3 -10 -10
-13 -47 -13 -38 0 -51 3 -47 13 2 6 13 36 23 65 10 28 21 52 25 52 3 0 13 -24
23 -52z"/>
</g>
</svg>
