<?xml version="1.0" standalone="no"?>
<!DOCTYPE svg PUBLIC "-//W3C//DTD SVG 20010904//EN"
 "http://www.w3.org/TR/2001/REC-SVG-20010904/DTD/svg10.dtd">
<svg version="1.0" xmlns="http://www.w3.org/2000/svg"
 width="130.000000pt" height="134.000000pt" viewBox="0 0 130.000000 134.000000"
 preserveAspectRatio="xMidYMid meet">
<metadata>
Created by potrace 1.10, written by Peter Selinger 2001-2011
</metadata>
<g transform="translate(0.000000,134.000000) scale(0.100000,-0.100000)"
fill="#000000" stroke="none">
<path d="M270 1160 l0 -40 -41 0 -41 0 4 -40 4 -40 -38 0 -38 0 0 -420 0 -420
420 0 420 0 0 40 c0 39 1 40 35 40 34 0 35 1 35 40 0 40 0 40 40 40 l40 0 2
420 3 420 -422 0 -423 0 0 -40z m830 -375 l0 -405 -35 0 -35 0 0 370 0 370
-370 0 -370 0 0 35 0 35 405 0 405 0 0 -405z m-825 290 c0 -33 -2 -35 -32 -35
-31 0 -33 2 -33 35 0 33 2 35 33 35 30 0 32 -2 32 -35z m745 -330 l0 -365 -30
0 -30 0 0 330 0 330 -335 0 -335 0 0 35 0 35 365 0 365 0 0 -365z m-825 -92
l0 -368 373 -3 372 -2 0 -33 0 -32 -402 0 -403 0 0 403 0 402 30 0 30 0 0
-367z m77 37 l-3 -330 336 0 335 0 0 -30 0 -30 -365 0 -365 0 0 360 0 360 33
0 32 0 -3 -330z m668 10 l0 -320 -325 0 -325 0 0 320 0 320 325 0 325 0 0
-320z m80 -370 c0 -27 -3 -30 -30 -30 -27 0 -30 3 -30 30 0 27 3 30 30 30 27
0 30 -3 30 -30z"/>
<path d="M390 563 l0 -93 93 0 92 0 0 93 0 92 -92 0 -93 0 0 -92z m135 -3 l0
-45 -45 0 c-44 0 -45 1 -48 33 -5 54 2 64 50 60 l43 -3 0 -45z"/>
</g>
</svg>
