<?xml version="1.0" standalone="no"?>
<!DOCTYPE svg PUBLIC "-//W3C//DTD SVG 20010904//EN"
 "http://www.w3.org/TR/2001/REC-SVG-20010904/DTD/svg10.dtd">
<svg version="1.0" xmlns="http://www.w3.org/2000/svg"
 width="300.000000pt" height="271.000000pt" viewBox="0 0 300.000000 271.000000"
 preserveAspectRatio="xMidYMid meet">
<metadata>
Created by potrace 1.10, written by Peter Selinger 2001-2011
</metadata>
<g transform="translate(0.000000,271.000000) scale(0.100000,-0.100000)"
fill="#000000" stroke="none">
<path d="M1077 2394 c-206 -37 -391 -136 -540 -287 -116 -119 -189 -246 -244
-424 -25 -82 -27 -101 -27 -263 0 -161 3 -182 28 -265 55 -184 131 -311 261
-441 126 -125 287 -215 465 -260 103 -26 355 -26 450 0 365 99 619 341 727
693 25 81 27 102 27 263 1 208 -15 284 -94 445 -191 392 -628 616 -1053 539z
m407 -39 c358 -90 632 -379 708 -743 28 -138 22 -330 -16 -456 -49 -165 -128
-297 -246 -417 -378 -382 -986 -384 -1365 -4 -273 272 -357 669 -219 1035 55
147 169 302 299 406 81 65 262 156 355 179 161 41 323 41 484 0z"/>
<path d="M1100 2196 c-239 -50 -449 -208 -554 -418 -69 -139 -90 -233 -83
-388 5 -142 25 -220 88 -340 97 -187 265 -325 479 -392 64 -19 96 -23 215 -23
160 0 232 17 366 86 422 219 551 758 277 1157 -95 139 -270 259 -443 306 -83
23 -264 29 -345 12z m275 -21 c311 -54 551 -287 620 -598 25 -113 17 -284 -18
-392 -76 -233 -258 -414 -497 -496 -88 -31 -105 -33 -230 -33 -115 -1 -146 3
-210 22 -259 81 -435 252 -523 507 -29 84 -31 100 -32 230 0 119 3 151 23 215
42 133 97 226 192 321 189 191 422 268 675 224z"/>
<path d="M1102 1990 c-106 -28 -187 -75 -268 -155 -117 -114 -174 -251 -174
-415 0 -170 52 -293 174 -416 129 -129 264 -181 446 -171 118 6 197 33 296 99
247 165 330 496 191 763 -41 78 -165 204 -237 240 -144 73 -293 92 -428 55z
m311 -30 c96 -30 175 -79 243 -152 106 -114 154 -234 154 -388 0 -195 -88
-364 -245 -468 -177 -119 -382 -133 -574 -40 -90 44 -207 160 -249 248 -50
102 -65 180 -59 290 20 371 376 619 730 510z"/>
<path d="M1156 1799 c-111 -27 -210 -110 -263 -218 -25 -50 -28 -67 -28 -161
0 -99 2 -110 32 -171 39 -80 111 -150 191 -187 50 -24 69 -27 157 -27 93 0
105 2 167 33 160 78 248 246 218 414 -24 131 -122 254 -238 299 -64 24 -176
33 -236 18z m225 -38 c73 -28 148 -95 190 -173 33 -60 34 -67 34 -168 0 -87
-4 -113 -22 -153 -33 -70 -113 -149 -186 -183 -54 -25 -74 -29 -152 -29 -77 0
-98 4 -147 27 -79 37 -142 98 -181 177 -29 60 -32 74 -32 161 0 85 3 101 29
155 88 177 282 255 467 186z"/>
<path d="M1189 1600 c-77 -23 -129 -95 -129 -179 0 -54 23 -113 56 -142 55
-48 142 -63 207 -35 44 18 94 77 107 127 38 141 -100 272 -241 229z m128 -29
c131 -60 125 -259 -10 -310 -144 -55 -281 106 -205 240 45 80 131 108 215 70z"/>
</g>
</svg>
